<?xml version="1.0" encoding="utf-8"?>
<!-- Generator: Adobe Illustrator 19.2.1, SVG Export Plug-In . SVG Version: 6.00 Build 0)  -->
<svg version="1.1" id="图层_1" xmlns="http://www.w3.org/2000/svg" xmlns:xlink="http://www.w3.org/1999/xlink" x="0px" y="0px"
	 viewBox="0 0 110 36" style="enable-background:new 0 0 110 36;" xml:space="preserve">
<desc>Created with Sketch.</desc>
<g>
	<path d="M0,21.2c0.5-2,1-4,2.5-5.6c3.2-3.7,8.8-4.3,12.4-1.2c0.2,0.2,0.3,0.4,0.6,0.6c-0.5,0.6-1,1.1-1.5,1.6
		c-3.9-2.3-6.8-2.2-9.3,0.2c-2.3,2.2-2.8,6-1.2,8.7C5,28.3,8,29.6,11,28.9c2.2-0.5,4.9-2.9,4.7-5.8c-2.5,0-4.9,0-7.6,0
		c1.2-1.6,2.2-2.8,4.3-2.5c1.9,0.2,3.9,0,5.8,0c1.1,5-2.4,9.6-6.5,10.6c-5.1,1.3-10.1-1.7-11.2-6.9c-0.1-0.6-0.3-1.1-0.5-1.7
		C0,22.2,0,21.7,0,21.2z"/>
	<path d="M110,31.1c-0.8,0-1.6,0-2.5,0c0-2.1,0-4.1,0-6.1c0-0.8,0-1.5-0.2-2.3c-0.6-2.3-2.8-3.4-5-2.4c-0.9,0.4-1.4,1-1.4,2
		c0.1,2.4,0,4.8,0,7.3c0,0.5,0,0.9,0,1.4c-0.9,0-1.6,0-2.3,0c0-4.2,0-8.3,0-12.5c0.4,0.3,0.7,0.5,1,0.7c1.2-1.2,2.7-1.8,4.5-1.8
		c2.9,0.1,4.8,1.6,5.6,4.5c0.1,0.3,0.2,0.6,0.3,1C110,25.7,110,28.4,110,31.1z"/>
	<path d="M42.4,19.6c0.2-0.2,0.4-0.4,0.7-0.6c3.1-2.6,7.5-1.2,8,2.8c0.4,2.9,0.3,5.8,0.1,8.8c-0.1,1.4-1.4,0.3-2.3,0.9
		c0-2.6,0-4.9,0-7.2c0-0.7,0-1.4-0.1-2c-0.3-1.4-1.3-2.2-2.6-2.1c-1.3,0-2.3,0.9-2.5,2.3c-0.1,1.3-0.1,2.6-0.1,3.9
		c0,1.2-0.1,2.4,0,3.6c0.1,1.2-0.4,1.4-1.5,1.4c-0.8,0-0.9-0.4-0.9-1c0-2.1,0-4.2,0-6.2c0-0.4,0-0.9,0-1.3c-0.2-1.7-1.2-2.7-2.7-2.6
		c-1.4,0.1-2.5,1.2-2.6,2.8c-0.1,2,0,4.1,0,6.1c0,0.7,0,1.3,0,2.1c-0.3,0.1-0.5,0.1-0.7,0.2c-1.7,0.1-1.7,0.1-1.7-1.7
		c0-3.3,0-6.5,0-9.8c0-0.4,0-0.8,0.1-1.4c0.5,0.4,0.8,0.7,1,0.8c1.5-0.5,2.8-1.4,4.1-1.4c1.3,0,2.6,0.9,3.9,1.4
		C42.5,19.4,42.4,19.5,42.4,19.6z"/>
	<path d="M55.3,12.6c0,1.8,0,3.5,0,4.8c1.5,0,2.9-0.2,4.2,0c2.7,0.4,4.8,2.8,5.2,5.7c0.5,2.9-0.9,5.8-3.4,7.2
		c-2.2,1.3-5.2,1-7.3-0.7c-0.8-0.7-1.2-1.4-1.2-2.5c0.1-3.4,0.2-6.7,0-10.1C52.8,15.1,53.5,13.8,55.3,12.6z M58.2,19.8
		c-2,0-2.9,0.9-2.9,2.9c0,1.1,0,2.2,0,3.3c0,1.6,0.7,2.4,2.3,2.6c2.5,0.4,4.7-1.5,4.8-4.1C62.6,21.9,60.7,19.8,58.2,19.8z"/>
	<path d="M96.7,24.6c0,3.8-3,6.9-6.6,6.9c-3.7,0-6.6-3.1-6.6-6.9c0-3.8,3-7,6.6-7C93.6,17.7,96.6,20.8,96.7,24.6z M94.2,24.7
		c0-2.5-1.9-4.5-4.2-4.5c-2.3,0-4.1,2-4.2,4.4c0,2.5,1.9,4.5,4.2,4.5C92.3,29.1,94.2,27.1,94.2,24.7z"/>
	<path d="M31.8,31.5c-0.9-1.3-1.7-1-2.7-0.5c-2.8,1.4-6,0.5-7.8-1.9c-2-2.7-1.9-6.4,0.2-8.9c2.6-3.1,7-3.2,9.7-0.3
		c0.3,0.3,0.6,0.9,0.6,1.3C31.8,24.4,31.8,27.7,31.8,31.5z M29.4,24.7C29.4,24.7,29.4,24.7,29.4,24.7c0-0.6-0.1-1.3,0-1.9
		c0.2-1.3-0.6-2-1.6-2.4c-1.7-0.6-3.4-0.1-4.6,1.3c-1.1,1.4-1.3,3.7-0.3,5.3c1,1.6,2.7,2.4,4.4,2c1.6-0.4,2.1-1,2.1-2.6
		C29.4,25.8,29.4,25.3,29.4,24.7z"/>
	<path d="M71.2,21.3c0.2-0.3,0.2-0.5,0.3-0.6c1.9-1.9,2.4-4.2,2.1-6.7c-0.1-0.9,0.1-1.4,1.2-1.4c1.2,0,1.2,0.6,1.2,1.4
		c0,5.3,0,10.7,0,16c0,0.9-0.1,1.4-1.2,1.4c-1.2,0-1.2-0.6-1.2-1.4c0-2.8,0-5.6,0-8.5C72.7,21.4,72,21.4,71.2,21.3z"/>
	<path d="M69.4,31.3c-0.5,0-0.9,0-1.3,0.1c-0.8,0.1-1-0.3-1-1c0-2.6,0-5.2,0-7.7c0-0.5-0.3-1-0.6-1.7c0.8-0.7,1.8-1.6,3-2.7
		C69.4,22.7,69.4,26.9,69.4,31.3z"/>
	<path d="M81.4,31.2c-2.2,0.4-2.3,0.4-2.3-1.7c0-2.3,0-4.6,0-6.9c0-0.5-0.4-1-0.6-1.8c0.8-0.7,1.8-1.6,3-2.7
		C81.4,22.7,81.4,26.9,81.4,31.2z"/>
	<path d="M69.7,12.4c-0.2,1.2-0.2,2-0.6,2.6c-0.2,0.3-1.5,0.2-1.8-0.2c-0.3-0.4-0.4-1.5-0.1-1.8C67.6,12.6,68.5,12.7,69.7,12.4z"/>
	<path d="M81.7,12.5c-0.3,1.1-0.3,2-0.7,2.6c-0.2,0.2-1.5,0.2-1.7-0.2C79,14.4,79,13.3,79.3,13C79.7,12.6,80.6,12.7,81.7,12.5z"/>
</g>
</svg>
